<svg viewBox="0 0 120 120" xmlns="http://www.w3.org/2000/svg">
  <!-- Background circle with gradient -->
  <defs>
    <linearGradient id="bgGradient" x1="0%" y1="0%" x2="100%" y2="100%">
      <stop offset="0%" style="stop-color:#667eea;stop-opacity:1" />
      <stop offset="100%" style="stop-color:#764ba2;stop-opacity:1" />
    </linearGradient>
    
    <linearGradient id="textGradient" x1="0%" y1="0%" x2="100%" y2="100%">
      <stop offset="0%" style="stop-color:#ffffff;stop-opacity:1" />
      <stop offset="100%" style="stop-color:#e0e7ff;stop-opacity:1" />
    </linearGradient>
    
    <!-- Subtle glow effect -->
    <filter id="glow">
      <feGaussianBlur stdDeviation="3" result="coloredBlur"/>
      <feMerge> 
        <feMergeNode in="coloredBlur"/>
        <feMergeNode in="SourceGraphic"/>
      </feMerge>
    </filter>
  </defs>
  
  <!-- Main circular background -->
  <circle cx="60" cy="60" r="55" fill="url(#bgGradient)" stroke="rgba(255,255,255,0.1)" stroke-width="2"/>
  
  <!-- Tech-inspired geometric elements -->
  <polygon points="25,35 35,25 45,35 35,45" fill="rgba(255,255,255,0.1)" opacity="0.6"/>
  <polygon points="75,35 85,25 95,35 85,45" fill="rgba(255,255,255,0.1)" opacity="0.6"/>
  <polygon points="25,85 35,75 45,85 35,95" fill="rgba(255,255,255,0.1)" opacity="0.6"/>
  <polygon points="75,85 85,75 95,85 85,95" fill="rgba(255,255,255,0.1)" opacity="0.6"/>
  
  <!-- Circuit-like lines -->
  <path d="M20 60 L35 60 L35 45 M85 45 L85 60 L100 60 M35 75 L35 60 M85 60 L85 75" 
        stroke="rgba(255,255,255,0.2)" stroke-width="1.5" fill="none"/>
  
  <!-- Main "K" letter -->
  <g filter="url(#glow)">
    <path d="M35 40 L35 80 M35 55 L50 40 M35 60 L52 80" 
          stroke="url(#textGradient)" stroke-width="4" stroke-linecap="round" stroke-linejoin="round" fill="none"/>
  </g>
  
  <!-- Main "P" letter -->
  <g filter="url(#glow)">
    <path d="M68 40 L68 80 M68 40 L78 40 C82 40 85 43 85 47 L85 53 C85 57 82 60 78 60 L68 60" 
          stroke="url(#textGradient)" stroke-width="4" stroke-linecap="round" stroke-linejoin="round" fill="none"/>
  </g>
  
  <!-- Small tech dots for detail -->
  <circle cx="30" cy="30" r="1.5" fill="rgba(255,255,255,0.4)"/>
  <circle cx="90" cy="30" r="1.5" fill="rgba(255,255,255,0.4)"/>
  <circle cx="30" cy="90" r="1.5" fill="rgba(255,255,255,0.4)"/>
  <circle cx="90" cy="90" r="1.5" fill="rgba(255,255,255,0.4)"/>
</svg>